<svg width="325" height="325" viewBox="0 0 325 325" fill="none" xmlns="http://www.w3.org/2000/svg">
<path d="M149.647 102.32C149.653 101.927 150.091 101.695 150.42 101.911L170.382 114.963C170.701 115.171 170.679 115.645 170.343 115.823L149.969 126.618C149.632 126.796 149.228 126.548 149.235 126.167L149.647 102.32Z" fill="#192730"/>
<path d="M148.733 102.651C148.737 101.521 150.318 101.264 150.68 102.335L155.107 115.44C155.341 116.13 154.78 116.831 154.055 116.754L149.576 116.281C149.065 116.228 148.678 115.796 148.681 115.283L148.733 102.651Z" fill="#586B73"/>
<path d="M170.191 239.037C167.495 245.648 158.147 245.684 155.399 239.094L108.461 126.508C106.269 121.251 110.118 115.452 115.814 115.43L208.821 115.071C214.517 115.049 218.411 120.818 216.26 126.092L170.191 239.037Z" fill="#C8CDCD"/>
<path d="M163.31 243.007L155.023 115.207L170.612 115.147L163.31 243.007Z" fill="#192730"/>
</svg>
